<svg width="24" height="25" viewBox="0 0 24 25" fill="none" xmlns="http://www.w3.org/2000/svg">
<g clip-path="url(#clip0_407_8442)">
<path d="M14.0869 21.9434C14.0352 22.093 13.9375 22.2224 13.8078 22.313C13.678 22.4037 13.523 22.451 13.3647 22.4482C13.2065 22.4454 13.0532 22.3926 12.9268 22.2974C12.8004 22.2022 12.7073 22.0694 12.6609 21.9181L10.4531 14.7415C10.4172 14.6244 10.3531 14.5179 10.2665 14.4313C10.1799 14.3447 10.0734 14.2806 9.95626 14.2446L2.7797 12.0415C2.62837 11.9951 2.49559 11.9021 2.40037 11.7757C2.30514 11.6493 2.25234 11.496 2.24953 11.3377C2.24672 11.1795 2.29405 11.0244 2.38473 10.8947C2.47541 10.765 2.6048 10.6673 2.75438 10.6156L19.2544 4.49557C19.3867 4.45055 19.5291 4.44343 19.6653 4.475C19.8014 4.50658 19.9261 4.57559 20.0252 4.67425C20.1242 4.77292 20.1937 4.8973 20.2258 5.03337C20.2579 5.16945 20.2514 5.31178 20.2069 5.44432L14.0869 21.9434Z" stroke="#4D4D4D" stroke-width="1.5" stroke-linecap="round" stroke-linejoin="round"/>
</g>
<defs>
<clipPath id="clip0_407_8442">
<rect width="24" height="24" fill="white" transform="matrix(-1 0 0 1 24 0.697754)"/>
</clipPath>
</defs>
</svg>
