<svg width="20" height="20" viewBox="0 0 20 20" fill="none" xmlns="http://www.w3.org/2000/svg">
<path d="M19.5303 18.4693L14.8362 13.7762C16.1968 12.1428 16.8752 10.0478 16.7304 7.92691C16.5856 5.80604 15.6287 3.82265 14.0588 2.38932C12.4889 0.955989 10.4268 0.183083 8.30158 0.231383C6.17632 0.279683 4.1515 1.14547 2.64833 2.64864C1.14517 4.15181 0.279377 6.17663 0.231078 8.30188C0.182778 10.4271 0.955684 12.4892 2.38901 14.0591C3.82234 15.629 5.80574 16.5859 7.9266 16.7307C10.0475 16.8755 12.1425 16.1971 13.7759 14.8365L18.469 19.5306C18.5387 19.6003 18.6215 19.6556 18.7125 19.6933C18.8035 19.731 18.9011 19.7504 18.9997 19.7504C19.0982 19.7504 19.1958 19.731 19.2868 19.6933C19.3779 19.6556 19.4606 19.6003 19.5303 19.5306C19.6 19.4609 19.6552 19.3782 19.693 19.2871C19.7307 19.1961 19.7501 19.0985 19.7501 19C19.7501 18.9014 19.7307 18.8038 19.693 18.7128C19.6552 18.6218 19.6 18.539 19.5303 18.4693ZM1.74966 8.49997C1.74966 7.16495 2.14555 5.8599 2.88724 4.74987C3.62894 3.63984 4.68315 2.77467 5.91655 2.26378C7.14995 1.75289 8.50715 1.61922 9.81652 1.87967C11.1259 2.14012 12.3286 2.78299 13.2726 3.727C14.2166 4.671 14.8595 5.87374 15.12 7.18311C15.3804 8.49248 15.2467 9.84968 14.7359 11.0831C14.225 12.3165 13.3598 13.3707 12.2498 14.1124C11.1397 14.8541 9.83469 15.25 8.49967 15.25C6.71006 15.248 4.99433 14.5362 3.72889 13.2708C2.46345 12.0053 1.75165 10.2896 1.74966 8.49997Z" fill="#A6A6A6"/>
</svg>
